<svg xmlns="http://www.w3.org/2000/svg" xmlns:xlink="http://www.w3.org/1999/xlink" width="500" zoomAndPan="magnify" viewBox="0 0 375 149.999998" height="200" preserveAspectRatio="xMidYMid meet" version="1.0"><defs><g/></defs><rect x="-37.5" width="450" fill="#ffffff" y="-15" height="179.999997" fill-opacity="1"/><rect x="-37.5" width="450" fill="#ffffff" y="-15" height="179.999997" fill-opacity="1"/><rect x="-37.5" width="450" fill="#edf2f7" y="-15" height="179.999997" fill-opacity="1"/><g fill="#000000" fill-opacity="1"><g transform="translate(22.576174, 87.997864)"><g><path d="M 16.75 -5.28125 L 7.5 -5.28125 L 5.734375 0 L 0.125 0 L 9.65625 -25.625 L 14.5625 -25.625 L 24.15625 0 L 18.53125 0 Z M 8.921875 -9.5625 L 15.328125 -9.5625 L 12.109375 -19.15625 Z M 8.921875 -9.5625 "/></g></g></g><g fill="#000000" fill-opacity="1"><g transform="translate(46.822484, 87.997864)"><g><path d="M 19.09375 -9.34375 C 19.09375 -6.414062 18.425781 -4.066406 17.09375 -2.296875 C 15.769531 -0.523438 13.972656 0.359375 11.703125 0.359375 C 9.773438 0.359375 8.222656 -0.3125 7.046875 -1.65625 L 7.046875 7.328125 L 1.953125 7.328125 L 1.953125 -19.046875 L 6.671875 -19.046875 L 6.84375 -17.171875 C 8.070312 -18.648438 9.679688 -19.390625 11.671875 -19.390625 C 14.015625 -19.390625 15.835938 -18.519531 17.140625 -16.78125 C 18.441406 -15.050781 19.09375 -12.660156 19.09375 -9.609375 Z M 14.015625 -9.71875 C 14.015625 -11.488281 13.695312 -12.851562 13.0625 -13.8125 C 12.4375 -14.78125 11.523438 -15.265625 10.328125 -15.265625 C 8.734375 -15.265625 7.640625 -14.648438 7.046875 -13.421875 L 7.046875 -5.625 C 7.660156 -4.375 8.765625 -3.75 10.359375 -3.75 C 12.796875 -3.75 14.015625 -5.738281 14.015625 -9.71875 Z M 14.015625 -9.71875 "/></g></g></g><g fill="#000000" fill-opacity="1"><g transform="translate(67.109859, 87.997864)"><g><path d="M 12.65625 -14.28125 C 11.957031 -14.375 11.347656 -14.421875 10.828125 -14.421875 C 8.898438 -14.421875 7.640625 -13.769531 7.046875 -12.46875 L 7.046875 0 L 1.953125 0 L 1.953125 -19.046875 L 6.765625 -19.046875 L 6.90625 -16.78125 C 7.925781 -18.519531 9.335938 -19.390625 11.140625 -19.390625 C 11.703125 -19.390625 12.226562 -19.316406 12.71875 -19.171875 Z M 12.65625 -14.28125 "/></g></g></g><g fill="#000000" fill-opacity="1"><g transform="translate(80.253546, 87.997864)"><g><path d="M 10.71875 0.359375 C 7.925781 0.359375 5.648438 -0.492188 3.890625 -2.203125 C 2.140625 -3.921875 1.265625 -6.207031 1.265625 -9.0625 L 1.265625 -9.5625 C 1.265625 -11.46875 1.632812 -13.175781 2.375 -14.6875 C 3.113281 -16.195312 4.160156 -17.359375 5.515625 -18.171875 C 6.867188 -18.984375 8.414062 -19.390625 10.15625 -19.390625 C 12.757812 -19.390625 14.804688 -18.566406 16.296875 -16.921875 C 17.796875 -15.285156 18.546875 -12.957031 18.546875 -9.9375 L 18.546875 -7.875 L 6.421875 -7.875 C 6.585938 -6.625 7.082031 -5.625 7.90625 -4.875 C 8.738281 -4.125 9.785156 -3.75 11.046875 -3.75 C 13.015625 -3.75 14.546875 -4.457031 15.640625 -5.875 L 18.140625 -3.078125 C 17.378906 -1.992188 16.347656 -1.148438 15.046875 -0.546875 C 13.742188 0.0546875 12.300781 0.359375 10.71875 0.359375 Z M 10.140625 -15.28125 C 9.128906 -15.28125 8.304688 -14.9375 7.671875 -14.25 C 7.046875 -13.570312 6.648438 -12.597656 6.484375 -11.328125 L 13.546875 -11.328125 L 13.546875 -11.734375 C 13.523438 -12.859375 13.21875 -13.726562 12.625 -14.34375 C 12.039062 -14.96875 11.210938 -15.28125 10.140625 -15.28125 Z M 10.140625 -15.28125 "/></g></g></g><g fill="#000000" fill-opacity="1"><g transform="translate(99.731538, 87.997864)"><g><path d="M 6.640625 -19.046875 L 6.796875 -16.84375 C 8.148438 -18.539062 9.972656 -19.390625 12.265625 -19.390625 C 14.285156 -19.390625 15.785156 -18.796875 16.765625 -17.609375 C 17.753906 -16.429688 18.257812 -14.660156 18.28125 -12.296875 L 18.28125 0 L 13.203125 0 L 13.203125 -12.1875 C 13.203125 -13.257812 12.96875 -14.039062 12.5 -14.53125 C 12.03125 -15.019531 11.25 -15.265625 10.15625 -15.265625 C 8.726562 -15.265625 7.65625 -14.648438 6.9375 -13.421875 L 6.9375 0 L 1.84375 0 L 1.84375 -19.046875 Z M 6.640625 -19.046875 "/></g></g></g><g fill="#000000" fill-opacity="1"><g transform="translate(119.913342, 87.997864)"><g><path d="M 1.15625 -9.65625 C 1.15625 -12.625 1.820312 -14.988281 3.15625 -16.75 C 4.488281 -18.507812 6.3125 -19.390625 8.625 -19.390625 C 10.476562 -19.390625 12.007812 -18.695312 13.21875 -17.3125 L 13.21875 -27.03125 L 18.328125 -27.03125 L 18.328125 0 L 13.734375 0 L 13.484375 -2.03125 C 12.210938 -0.4375 10.582031 0.359375 8.59375 0.359375 C 6.351562 0.359375 4.550781 -0.523438 3.1875 -2.296875 C 1.832031 -4.066406 1.15625 -6.519531 1.15625 -9.65625 Z M 6.25 -9.296875 C 6.25 -7.515625 6.554688 -6.144531 7.171875 -5.1875 C 7.796875 -4.238281 8.703125 -3.765625 9.890625 -3.765625 C 11.460938 -3.765625 12.570312 -4.425781 13.21875 -5.75 L 13.21875 -13.265625 C 12.582031 -14.597656 11.484375 -15.265625 9.921875 -15.265625 C 7.472656 -15.265625 6.25 -13.273438 6.25 -9.296875 Z M 6.25 -9.296875 "/></g></g></g><g fill="#000000" fill-opacity="1"><g transform="translate(140.218306, 87.997864)"><g><path d="M 12.984375 0 C 12.753906 -0.457031 12.585938 -1.023438 12.484375 -1.703125 C 11.242188 -0.328125 9.640625 0.359375 7.671875 0.359375 C 5.804688 0.359375 4.257812 -0.179688 3.03125 -1.265625 C 1.8125 -2.347656 1.203125 -3.707031 1.203125 -5.34375 C 1.203125 -7.363281 1.945312 -8.910156 3.4375 -9.984375 C 4.9375 -11.066406 7.097656 -11.617188 9.921875 -11.640625 L 12.265625 -11.640625 L 12.265625 -12.71875 C 12.265625 -13.601562 12.035156 -14.304688 11.578125 -14.828125 C 11.128906 -15.359375 10.421875 -15.625 9.453125 -15.625 C 8.597656 -15.625 7.925781 -15.414062 7.4375 -15 C 6.945312 -14.59375 6.703125 -14.035156 6.703125 -13.328125 L 1.625 -13.328125 C 1.625 -14.429688 1.960938 -15.453125 2.640625 -16.390625 C 3.316406 -17.328125 4.273438 -18.0625 5.515625 -18.59375 C 6.765625 -19.125 8.164062 -19.390625 9.71875 -19.390625 C 12.0625 -19.390625 13.921875 -18.800781 15.296875 -17.625 C 16.679688 -16.445312 17.375 -14.789062 17.375 -12.65625 L 17.375 -4.40625 C 17.382812 -2.59375 17.632812 -1.222656 18.125 -0.296875 L 18.125 0 Z M 8.78125 -3.53125 C 9.53125 -3.53125 10.222656 -3.695312 10.859375 -4.03125 C 11.492188 -4.375 11.960938 -4.828125 12.265625 -5.390625 L 12.265625 -8.65625 L 10.359375 -8.65625 C 7.816406 -8.65625 6.460938 -7.773438 6.296875 -6.015625 L 6.28125 -5.71875 C 6.28125 -5.082031 6.503906 -4.554688 6.953125 -4.140625 C 7.398438 -3.734375 8.007812 -3.53125 8.78125 -3.53125 Z M 8.78125 -3.53125 "/></g></g></g><g fill="#ed64a6" fill-opacity="1"><g transform="translate(159.533197, 87.997864)"><g><path d="M 9.1875 -25.625 L 15.765625 -7.046875 L 22.3125 -25.625 L 29.25 -25.625 L 29.25 0 L 23.953125 0 L 23.953125 -7 L 24.484375 -19.09375 L 17.5625 0 L 13.9375 0 L 7.046875 -19.078125 L 7.5625 -7 L 7.5625 0 L 2.28125 0 L 2.28125 -25.625 Z M 9.1875 -25.625 "/></g></g></g><g fill="#ed64a6" fill-opacity="1"><g transform="translate(191.099147, 87.997864)"><g><path d="M 12.984375 0 C 12.753906 -0.457031 12.585938 -1.023438 12.484375 -1.703125 C 11.242188 -0.328125 9.640625 0.359375 7.671875 0.359375 C 5.804688 0.359375 4.257812 -0.179688 3.03125 -1.265625 C 1.8125 -2.347656 1.203125 -3.707031 1.203125 -5.34375 C 1.203125 -7.363281 1.945312 -8.910156 3.4375 -9.984375 C 4.9375 -11.066406 7.097656 -11.617188 9.921875 -11.640625 L 12.265625 -11.640625 L 12.265625 -12.71875 C 12.265625 -13.601562 12.035156 -14.304688 11.578125 -14.828125 C 11.128906 -15.359375 10.421875 -15.625 9.453125 -15.625 C 8.597656 -15.625 7.925781 -15.414062 7.4375 -15 C 6.945312 -14.59375 6.703125 -14.035156 6.703125 -13.328125 L 1.625 -13.328125 C 1.625 -14.429688 1.960938 -15.453125 2.640625 -16.390625 C 3.316406 -17.328125 4.273438 -18.0625 5.515625 -18.59375 C 6.765625 -19.125 8.164062 -19.390625 9.71875 -19.390625 C 12.0625 -19.390625 13.921875 -18.800781 15.296875 -17.625 C 16.679688 -16.445312 17.375 -14.789062 17.375 -12.65625 L 17.375 -4.40625 C 17.382812 -2.59375 17.632812 -1.222656 18.125 -0.296875 L 18.125 0 Z M 8.78125 -3.53125 C 9.53125 -3.53125 10.222656 -3.695312 10.859375 -4.03125 C 11.492188 -4.375 11.960938 -4.828125 12.265625 -5.390625 L 12.265625 -8.65625 L 10.359375 -8.65625 C 7.816406 -8.65625 6.460938 -7.773438 6.296875 -6.015625 L 6.28125 -5.71875 C 6.28125 -5.082031 6.503906 -4.554688 6.953125 -4.140625 C 7.398438 -3.734375 8.007812 -3.53125 8.78125 -3.53125 Z M 8.78125 -3.53125 "/></g></g></g><g fill="#ed64a6" fill-opacity="1"><g transform="translate(210.418776, 87.997864)"><g><path d="M 8.046875 -23.71875 L 8.046875 -19.046875 L 11.296875 -19.046875 L 11.296875 -15.3125 L 8.046875 -15.3125 L 8.046875 -5.8125 C 8.046875 -5.101562 8.179688 -4.597656 8.453125 -4.296875 C 8.722656 -3.992188 9.238281 -3.84375 10 -3.84375 C 10.5625 -3.84375 11.0625 -3.878906 11.5 -3.953125 L 11.5 -0.109375 C 10.5 0.203125 9.46875 0.359375 8.40625 0.359375 C 4.84375 0.359375 3.023438 -1.441406 2.953125 -5.046875 L 2.953125 -15.3125 L 0.171875 -15.3125 L 0.171875 -19.046875 L 2.953125 -19.046875 L 2.953125 -23.71875 Z M 8.046875 -23.71875 "/></g></g></g><g fill="#ed64a6" fill-opacity="1"><g transform="translate(222.594716, 87.997864)"><g><path d="M 10.71875 0.359375 C 7.925781 0.359375 5.648438 -0.492188 3.890625 -2.203125 C 2.140625 -3.921875 1.265625 -6.207031 1.265625 -9.0625 L 1.265625 -9.5625 C 1.265625 -11.46875 1.632812 -13.175781 2.375 -14.6875 C 3.113281 -16.195312 4.160156 -17.359375 5.515625 -18.171875 C 6.867188 -18.984375 8.414062 -19.390625 10.15625 -19.390625 C 12.757812 -19.390625 14.804688 -18.566406 16.296875 -16.921875 C 17.796875 -15.285156 18.546875 -12.957031 18.546875 -9.9375 L 18.546875 -7.875 L 6.421875 -7.875 C 6.585938 -6.625 7.082031 -5.625 7.90625 -4.875 C 8.738281 -4.125 9.785156 -3.75 11.046875 -3.75 C 13.015625 -3.75 14.546875 -4.457031 15.640625 -5.875 L 18.140625 -3.078125 C 17.378906 -1.992188 16.347656 -1.148438 15.046875 -0.546875 C 13.742188 0.0546875 12.300781 0.359375 10.71875 0.359375 Z M 10.140625 -15.28125 C 9.128906 -15.28125 8.304688 -14.9375 7.671875 -14.25 C 7.046875 -13.570312 6.648438 -12.597656 6.484375 -11.328125 L 13.546875 -11.328125 L 13.546875 -11.734375 C 13.523438 -12.859375 13.21875 -13.726562 12.625 -14.34375 C 12.039062 -14.96875 11.210938 -15.28125 10.140625 -15.28125 Z M 10.140625 -15.28125 "/></g></g></g><g fill="#ed64a6" fill-opacity="1"><g transform="translate(242.072708, 87.997864)"><g><path d="M 6.71875 -19.046875 L 6.875 -16.921875 C 8.226562 -18.566406 10.054688 -19.390625 12.359375 -19.390625 C 14.804688 -19.390625 16.488281 -18.421875 17.40625 -16.484375 C 18.738281 -18.421875 20.644531 -19.390625 23.125 -19.390625 C 25.1875 -19.390625 26.722656 -18.785156 27.734375 -17.578125 C 28.742188 -16.378906 29.25 -14.570312 29.25 -12.15625 L 29.25 0 L 24.15625 0 L 24.15625 -12.140625 C 24.15625 -13.222656 23.941406 -14.015625 23.515625 -14.515625 C 23.085938 -15.015625 22.34375 -15.265625 21.28125 -15.265625 C 19.75 -15.265625 18.691406 -14.535156 18.109375 -13.078125 L 18.125 0 L 13.046875 0 L 13.046875 -12.125 C 13.046875 -13.226562 12.828125 -14.023438 12.390625 -14.515625 C 11.953125 -15.015625 11.210938 -15.265625 10.171875 -15.265625 C 8.734375 -15.265625 7.691406 -14.664062 7.046875 -13.46875 L 7.046875 0 L 1.953125 0 L 1.953125 -19.046875 Z M 6.71875 -19.046875 "/></g></g></g><g fill="#ed64a6" fill-opacity="1"><g transform="translate(273.269163, 87.997864)"><g><path d="M 12.984375 0 C 12.753906 -0.457031 12.585938 -1.023438 12.484375 -1.703125 C 11.242188 -0.328125 9.640625 0.359375 7.671875 0.359375 C 5.804688 0.359375 4.257812 -0.179688 3.03125 -1.265625 C 1.8125 -2.347656 1.203125 -3.707031 1.203125 -5.34375 C 1.203125 -7.363281 1.945312 -8.910156 3.4375 -9.984375 C 4.9375 -11.066406 7.097656 -11.617188 9.921875 -11.640625 L 12.265625 -11.640625 L 12.265625 -12.71875 C 12.265625 -13.601562 12.035156 -14.304688 11.578125 -14.828125 C 11.128906 -15.359375 10.421875 -15.625 9.453125 -15.625 C 8.597656 -15.625 7.925781 -15.414062 7.4375 -15 C 6.945312 -14.59375 6.703125 -14.035156 6.703125 -13.328125 L 1.625 -13.328125 C 1.625 -14.429688 1.960938 -15.453125 2.640625 -16.390625 C 3.316406 -17.328125 4.273438 -18.0625 5.515625 -18.59375 C 6.765625 -19.125 8.164062 -19.390625 9.71875 -19.390625 C 12.0625 -19.390625 13.921875 -18.800781 15.296875 -17.625 C 16.679688 -16.445312 17.375 -14.789062 17.375 -12.65625 L 17.375 -4.40625 C 17.382812 -2.59375 17.632812 -1.222656 18.125 -0.296875 L 18.125 0 Z M 8.78125 -3.53125 C 9.53125 -3.53125 10.222656 -3.695312 10.859375 -4.03125 C 11.492188 -4.375 11.960938 -4.828125 12.265625 -5.390625 L 12.265625 -8.65625 L 10.359375 -8.65625 C 7.816406 -8.65625 6.460938 -7.773438 6.296875 -6.015625 L 6.28125 -5.71875 C 6.28125 -5.082031 6.503906 -4.554688 6.953125 -4.140625 C 7.398438 -3.734375 8.007812 -3.53125 8.78125 -3.53125 Z M 10.71875 -27.03125 L 16.265625 -27.03125 L 11.375 -21.578125 L 7.25 -21.578125 Z M 10.71875 -27.03125 "/></g></g></g><g fill="#ed64a6" fill-opacity="1"><g transform="translate(292.588791, 87.997864)"><g><path d="M 8.046875 -23.71875 L 8.046875 -19.046875 L 11.296875 -19.046875 L 11.296875 -15.3125 L 8.046875 -15.3125 L 8.046875 -5.8125 C 8.046875 -5.101562 8.179688 -4.597656 8.453125 -4.296875 C 8.722656 -3.992188 9.238281 -3.84375 10 -3.84375 C 10.5625 -3.84375 11.0625 -3.878906 11.5 -3.953125 L 11.5 -0.109375 C 10.5 0.203125 9.46875 0.359375 8.40625 0.359375 C 4.84375 0.359375 3.023438 -1.441406 2.953125 -5.046875 L 2.953125 -15.3125 L 0.171875 -15.3125 L 0.171875 -19.046875 L 2.953125 -19.046875 L 2.953125 -23.71875 Z M 8.046875 -23.71875 "/></g></g></g><g fill="#ed64a6" fill-opacity="1"><g transform="translate(304.764732, 87.997864)"><g><path d="M 7.328125 0 L 2.21875 0 L 2.21875 -19.046875 L 7.328125 -19.046875 Z M 1.921875 -23.96875 C 1.921875 -24.726562 2.175781 -25.351562 2.6875 -25.84375 C 3.195312 -26.34375 3.890625 -26.59375 4.765625 -26.59375 C 5.640625 -26.59375 6.332031 -26.34375 6.84375 -25.84375 C 7.363281 -25.351562 7.625 -24.726562 7.625 -23.96875 C 7.625 -23.195312 7.363281 -22.5625 6.84375 -22.0625 C 6.320312 -21.570312 5.628906 -21.328125 4.765625 -21.328125 C 3.910156 -21.328125 3.222656 -21.570312 2.703125 -22.0625 C 2.179688 -22.5625 1.921875 -23.195312 1.921875 -23.96875 Z M 1.921875 -23.96875 "/></g></g></g><g fill="#ed64a6" fill-opacity="1"><g transform="translate(314.31898, 87.997864)"><g><path d="M 9.875 -3.75 C 10.8125 -3.75 11.570312 -4.003906 12.15625 -4.515625 C 12.75 -5.035156 13.054688 -5.722656 13.078125 -6.578125 L 17.84375 -6.578125 C 17.832031 -5.285156 17.476562 -4.101562 16.78125 -3.03125 C 16.09375 -1.957031 15.144531 -1.125 13.9375 -0.53125 C 12.738281 0.0625 11.414062 0.359375 9.96875 0.359375 C 7.238281 0.359375 5.085938 -0.503906 3.515625 -2.234375 C 1.941406 -3.972656 1.15625 -6.367188 1.15625 -9.421875 L 1.15625 -9.75 C 1.15625 -12.6875 1.9375 -15.023438 3.5 -16.765625 C 5.0625 -18.515625 7.203125 -19.390625 9.921875 -19.390625 C 12.304688 -19.390625 14.21875 -18.710938 15.65625 -17.359375 C 17.09375 -16.003906 17.820312 -14.203125 17.84375 -11.953125 L 13.078125 -11.953125 C 13.054688 -12.929688 12.75 -13.726562 12.15625 -14.34375 C 11.570312 -14.96875 10.800781 -15.28125 9.84375 -15.28125 C 8.65625 -15.28125 7.757812 -14.847656 7.15625 -13.984375 C 6.550781 -13.117188 6.25 -11.71875 6.25 -9.78125 L 6.25 -9.265625 C 6.25 -7.296875 6.546875 -5.882812 7.140625 -5.03125 C 7.742188 -4.175781 8.65625 -3.75 9.875 -3.75 Z M 9.875 -3.75 "/></g></g></g><g fill="#ed64a6" fill-opacity="1"><g transform="translate(333.110751, 87.997864)"><g><path d="M 12.984375 0 C 12.753906 -0.457031 12.585938 -1.023438 12.484375 -1.703125 C 11.242188 -0.328125 9.640625 0.359375 7.671875 0.359375 C 5.804688 0.359375 4.257812 -0.179688 3.03125 -1.265625 C 1.8125 -2.347656 1.203125 -3.707031 1.203125 -5.34375 C 1.203125 -7.363281 1.945312 -8.910156 3.4375 -9.984375 C 4.9375 -11.066406 7.097656 -11.617188 9.921875 -11.640625 L 12.265625 -11.640625 L 12.265625 -12.71875 C 12.265625 -13.601562 12.035156 -14.304688 11.578125 -14.828125 C 11.128906 -15.359375 10.421875 -15.625 9.453125 -15.625 C 8.597656 -15.625 7.925781 -15.414062 7.4375 -15 C 6.945312 -14.59375 6.703125 -14.035156 6.703125 -13.328125 L 1.625 -13.328125 C 1.625 -14.429688 1.960938 -15.453125 2.640625 -16.390625 C 3.316406 -17.328125 4.273438 -18.0625 5.515625 -18.59375 C 6.765625 -19.125 8.164062 -19.390625 9.71875 -19.390625 C 12.0625 -19.390625 13.921875 -18.800781 15.296875 -17.625 C 16.679688 -16.445312 17.375 -14.789062 17.375 -12.65625 L 17.375 -4.40625 C 17.382812 -2.59375 17.632812 -1.222656 18.125 -0.296875 L 18.125 0 Z M 8.78125 -3.53125 C 9.53125 -3.53125 10.222656 -3.695312 10.859375 -4.03125 C 11.492188 -4.375 11.960938 -4.828125 12.265625 -5.390625 L 12.265625 -8.65625 L 10.359375 -8.65625 C 7.816406 -8.65625 6.460938 -7.773438 6.296875 -6.015625 L 6.28125 -5.71875 C 6.28125 -5.082031 6.503906 -4.554688 6.953125 -4.140625 C 7.398438 -3.734375 8.007812 -3.53125 8.78125 -3.53125 Z M 8.78125 -3.53125 "/></g></g></g></svg>